<?xml version="1.0" encoding="utf-8" standalone="no"?>
<!DOCTYPE svg PUBLIC "-//W3C//DTD SVG 1.1//EN"
  "http://www.w3.org/Graphics/SVG/1.1/DTD/svg11.dtd">
<!-- Created with matplotlib (http://matplotlib.org/) -->
<svg height="144pt" version="1.1" viewBox="0 0 144 144" width="144pt" xmlns="http://www.w3.org/2000/svg" xmlns:xlink="http://www.w3.org/1999/xlink">
 <defs>
  <style type="text/css">
*{stroke-linecap:butt;stroke-linejoin:round;stroke-miterlimit:100000;}
  </style>
 </defs>
 <g id="figure_1">
  <g id="patch_1">
   <path d="M 0 144 
L 144 144 
L 144 0 
L 0 0 
L 0 144 
z
" style="fill:none;"/>
  </g>
  <g id="axes_1">
   <g id="patch_2">
    <path clip-path="url(#p7242400f0f)" d="M 77.201866 35.092484 
C 72.058579 32.629146 66.403334 31.42132 60.702479 31.568605 
C 55.001625 31.71589 49.416293 33.214125 44.407066 35.93976 
C 39.39784 38.665395 35.106302 42.541391 31.886347 47.248123 
C 28.666392 51.954854 26.609029 57.359288 25.883915 63.015757 
C 25.158801 68.672226 25.786432 74.420854 27.715049 79.787592 
C 29.643667 85.154329 32.818761 89.987487 36.978503 93.88851 
C 41.138245 97.789533 46.165063 100.64816 51.644429 102.228659 
C 57.123796 103.809159 62.900839 104.066859 68.499168 102.98051 
C 68.050486 101.848933 67.828671 100.640092 67.846372 99.422937 
C 67.864074 98.205781 68.12095 97.003902 68.602349 95.885852 
C 63.313208 92.293647 59.136099 87.288996 56.547512 81.442786 
C 53.958925 75.596576 53.061178 69.139888 53.956678 62.809245 
C 54.852178 56.478603 57.505529 50.524235 61.61406 45.625364 
C 65.722591 40.726494 71.123904 37.076757 77.201866 35.092484 
" style="fill:#069e73;opacity:0.4;"/>
   </g>
   <g id="patch_3">
    <path clip-path="url(#p7242400f0f)" d="M 77.201866 35.092484 
C 82.602467 37.679061 87.274282 41.571215 90.793589 46.415939 
C 94.312896 51.260664 96.569983 56.906925 97.360138 62.842625 
C 98.150293 68.778325 97.448884 74.818418 95.319525 80.415088 
C 93.190167 86.011758 89.699243 90.990528 85.163368 94.89984 
C 85.758405 95.925929 86.151357 97.056594 86.320923 98.230551 
C 86.490489 99.404507 86.433551 100.600155 86.153193 101.752685 
C 91.162056 101.996269 96.163721 101.135037 100.802651 99.230209 
C 105.44158 97.325381 109.60519 94.423188 112.997514 90.729927 
C 116.389838 87.036666 118.928547 82.641973 120.433178 77.858238 
C 121.937809 73.074503 122.371847 68.017825 121.704438 63.047654 
C 121.037028 58.077483 119.28437 53.314442 116.571049 49.097106 
C 113.857727 44.87977 110.249593 41.310492 106.003127 38.642991 
C 101.756661 35.975489 96.974923 34.274503 91.997817 33.660945 
C 87.020711 33.047387 81.96903 33.536148 77.201866 35.092484 
" style="fill:#0c73b3;opacity:0.4;"/>
   </g>
   <g id="patch_4">
    <path clip-path="url(#p7242400f0f)" d="M 77.201866 35.092484 
C 71.123904 37.076757 65.722591 40.726494 61.61406 45.625364 
C 57.505529 50.524235 54.852178 56.478603 53.956678 62.809245 
C 53.061178 69.139888 53.958925 75.596576 56.547512 81.442786 
C 59.136099 87.288996 63.313208 92.293647 68.602349 95.885852 
C 69.282745 94.305631 70.389129 92.945179 71.797495 91.956978 
C 73.20586 90.968777 74.861547 90.391181 76.578981 90.288928 
C 78.296415 90.186675 80.00894 90.563735 81.524612 91.377844 
C 83.040284 92.191953 84.300277 93.411516 85.163368 94.89984 
C 89.699243 90.990528 93.190167 86.011758 95.319525 80.415088 
C 97.448884 74.818418 98.150293 68.778325 97.360138 62.842625 
C 96.569983 56.906925 94.312896 51.260664 90.793589 46.415939 
C 87.274282 41.571215 82.602467 37.679061 77.201866 35.092484 
" style="fill:#0dbfce;opacity:0.4;"/>
   </g>
   <g id="patch_5">
    <path clip-path="url(#p7242400f0f)" d="M 68.499168 102.98051 
C 69.225392 104.812051 70.516053 106.365765 72.183345 107.415566 
C 73.850637 108.465368 75.809565 108.957742 77.775082 108.821042 
C 79.7406 108.684341 81.61251 107.925535 83.118426 106.65504 
C 84.624343 105.384544 85.687499 103.667124 86.153193 101.752685 
C 84.632947 101.678755 83.119332 101.503405 81.62245 101.227806 
C 80.125567 100.952206 78.648754 100.576971 77.201866 100.104606 
C 75.819928 100.766475 74.397187 101.339544 72.942308 101.820325 
C 71.487429 102.301107 70.00337 102.688621 68.499168 102.98051 
" style="fill:#e69f00;opacity:0.4;"/>
   </g>
   <g id="patch_6">
    <path clip-path="url(#p7242400f0f)" d="M 68.499168 102.98051 
C 70.00337 102.688621 71.487429 102.301107 72.942308 101.820325 
C 74.397187 101.339544 75.819928 100.766475 77.201866 100.104606 
C 75.678628 99.607314 74.192228 99.003569 72.753656 98.297833 
C 71.315084 97.592098 69.927896 96.786118 68.602349 95.885852 
C 68.12095 97.003902 67.864074 98.205781 67.846372 99.422937 
C 67.828671 100.640092 68.050486 101.848933 68.499168 102.98051 
" style="fill:#a5de50;opacity:0.4;"/>
   </g>
   <g id="patch_7">
    <path clip-path="url(#p7242400f0f)" d="M 85.163368 94.89984 
C 83.958568 95.938215 82.686354 96.895701 81.35507 97.766016 
C 80.023786 98.636332 78.636351 99.41757 77.201866 100.104606 
C 78.648754 100.576971 80.125567 100.952206 81.62245 101.227806 
C 83.119332 101.503405 84.632947 101.678755 86.153193 101.752685 
C 86.433551 100.600155 86.490489 99.404507 86.320923 98.230551 
C 86.151357 97.056594 85.758405 95.925929 85.163368 94.89984 
" style="fill:#a9c07d;opacity:0.4;"/>
   </g>
   <g id="patch_8">
    <path clip-path="url(#p7242400f0f)" d="M 68.602349 95.885852 
C 69.927896 96.786118 71.315084 97.592098 72.753656 98.297833 
C 74.192228 99.003569 75.678628 99.607314 77.201866 100.104606 
C 78.636351 99.41757 80.023786 98.636332 81.35507 97.766016 
C 82.686354 96.895701 83.958568 95.938215 85.163368 94.89984 
C 84.300277 93.411516 83.040284 92.191953 81.524612 91.377844 
C 80.00894 90.563735 78.296415 90.186675 76.578981 90.288928 
C 74.861547 90.391181 73.20586 90.968777 71.797495 91.956978 
C 70.389129 92.945179 69.282745 94.305631 68.602349 95.885852 
" style="fill:#63ad76;opacity:0.4;"/>
   </g>
   <g id="text_1">
    <text style="fill:#262626;font-family:Arial;font-size:10.0px;font-style:normal;font-weight:400;text-anchor:middle;" transform="rotate(-0.000000, 39.939839, 69.735134)" x="39.9398393572" y="69.7351337577">2173</text>
   </g>
   <g id="text_2">
    <text style="fill:#262626;font-family:Arial;font-size:10.0px;font-style:normal;font-weight:400;text-anchor:middle;" transform="rotate(-0.000000, 109.658827, 69.866900)" x="109.65882674" y="69.8669002564">1721</text>
   </g>
   <g id="text_3">
    <text style="fill:#262626;font-family:Arial;font-size:10.0px;font-style:normal;font-weight:400;text-anchor:middle;" transform="rotate(-0.000000, 75.144428, 74.858379)" x="75.1444284368" y="74.8583786626">2209</text>
   </g>
   <g id="text_4">
    <text style="fill:#262626;font-family:Arial;font-size:10.0px;font-style:normal;font-weight:400;text-anchor:middle;" transform="rotate(-0.000000, 77.707748, 110.155217)" x="77.7077481339" y="110.155216507">95</text>
   </g>
   <g id="text_5">
    <text style="fill:#262626;font-family:Arial;font-size:10.0px;font-style:normal;font-weight:400;text-anchor:middle;" transform="rotate(-0.000000, 69.875441, 102.231645)" x="69.8754410949" y="102.231644544">54</text>
   </g>
   <g id="text_6">
    <text style="fill:#262626;font-family:Arial;font-size:10.0px;font-style:normal;font-weight:400;text-anchor:middle;" transform="rotate(-0.000000, 84.338558, 101.338340)" x="84.3385581914" y="101.338339768">53</text>
   </g>
   <g id="text_7">
    <text style="fill:#262626;font-family:Arial;font-size:10.0px;font-style:normal;font-weight:400;text-anchor:middle;" transform="rotate(-0.000000, 76.647599, 94.409318)" x="76.6475985209" y="94.4093178757">99</text>
   </g>
   <g id="text_8">
    <text style="fill:#262626;font-family:Arial;font-size:10.0px;font-style:normal;font-weight:400;" transform="translate(-3.61733212898 20.8578322482)">m6a CIMS</text>
    <text style="fill:#262626;font-family:Arial;font-size:10.0px;font-style:normal;font-weight:400;" transform="translate(5.25923037102 31.5809572482)">CLIPseq</text>
   </g>
   <g id="text_9">
    <text style="fill:#262626;font-family:Arial;font-size:10.0px;font-style:normal;font-weight:400;" transform="translate(104.911374816 22.7052926221)">m6a CITS</text>
    <text style="fill:#262626;font-family:Arial;font-size:10.0px;font-style:normal;font-weight:400;" transform="translate(104.911374816 33.4284176221)">CLIPseq</text>
   </g>
   <g id="text_10">
    <text style="fill:#262626;font-family:Arial;font-size:10.0px;font-style:normal;font-weight:400;" transform="translate(59.9027172509 116.929775424)">Nuclear</text>
    <text style="fill:#262626;font-family:Arial;font-size:10.0px;font-style:normal;font-weight:400;" transform="translate(48.2284985009 127.506650424)">Accumulated</text>
   </g>
  </g>
 </g>
 <defs>
  <clipPath id="p7242400f0f">
   <rect height="92.4695834435" width="111.6" x="18.0" y="23.9652082782"/>
  </clipPath>
 </defs>
</svg>
